# xmcd CD database file
#
# Track frame offsets:
#	150
#	23780
#	45682
#	64499
#	82134
#	99965
#	113407
#	132942
#	152056
#	167515
#	190419
#	204851
#	221974
#	245512
#
# Disc length: 3591 seconds
#
# Revision: 0
# Processed by: cddbd v1.5.2PL0 Copyright (c) Steve Scherf et al.
# Submitted via: CDex 1.51
#
DISCID=c00e050e
DTITLE=Stanton Moore - Take it to the street (the music)!
DYEAR=2008
DGENRE=Jazz
TTITLE0=Blackbird Special
TTITLE1=Charlie Dozen
TTITLE2=My feet can't Fail Me Now
TTITLE3=Sprung Monkey
TTITLE4=I'll Fly Away
TTITLE5=Handa Wanda
TTITLE6=Tchefunka
TTITLE7=(I'got A) Big Fat Woman
TTITLE8=Who Took the Happiness Out?
TTITLE9=Junko Partner
TTITLE10=Just A Closer Walk With Thee
TTITLE11=Dare For Now
TTITLE12=Use Your Brain
TTITLE13=Snowball
EXTD=YEAR: 2008
EXTT0=
EXTT1=
EXTT2=
EXTT3=
EXTT4=
EXTT5=
EXTT6=
EXTT7=
EXTT8=
EXTT9=
EXTT10=
EXTT11=
EXTT12=
EXTT13=
PLAYORDER=
